<mxfile host="app.diagrams.net" modified="2023-12-21T06:55:25.935Z" agent="Mozilla/5.0 (Windows NT 10.0; Win64; x64) AppleWebKit/537.36 (KHTML, like Gecko) Chrome/120.0.0.0 Safari/537.36" etag="KaCXZS3EYH3ePuMLqz3y" version="22.1.11" type="device">
  <diagram id="VUPCrrjHEeE_5dmQ4aHO" name="第 1 页">
    <mxGraphModel dx="2459" dy="556" grid="1" gridSize="10" guides="1" tooltips="1" connect="1" arrows="1" fold="1" page="1" pageScale="1" pageWidth="1169" pageHeight="827" math="0" shadow="0">
      <root>
        <mxCell id="0" />
        <mxCell id="1" parent="0" />
        <mxCell id="Bzr7LH3LYIl0aywDg5R7-12" value="" style="rounded=0;whiteSpace=wrap;html=1;" parent="1" vertex="1">
          <mxGeometry x="34" y="300" width="1100" height="330" as="geometry" />
        </mxCell>
        <mxCell id="Bzr7LH3LYIl0aywDg5R7-1" value="&lt;font style=&quot;font-size: 22px;&quot;&gt;指紋簽到系統&lt;/font&gt;" style="shape=parallelogram;perimeter=parallelogramPerimeter;whiteSpace=wrap;html=1;fixedSize=1;" parent="1" vertex="1">
          <mxGeometry x="487" y="140" width="195" height="100" as="geometry" />
        </mxCell>
        <mxCell id="Bzr7LH3LYIl0aywDg5R7-2" value="&lt;font style=&quot;font-size: 22px;&quot;&gt;指紋識別&lt;/font&gt;" style="shape=parallelogram;perimeter=parallelogramPerimeter;whiteSpace=wrap;html=1;fixedSize=1;" parent="1" vertex="1">
          <mxGeometry x="487" y="414" width="195" height="100" as="geometry" />
        </mxCell>
        <mxCell id="Bzr7LH3LYIl0aywDg5R7-3" value="&lt;font style=&quot;font-size: 22px;&quot;&gt;Web 伺服器操作&lt;/font&gt;" style="shape=parallelogram;perimeter=parallelogramPerimeter;whiteSpace=wrap;html=1;fixedSize=1;" parent="1" vertex="1">
          <mxGeometry x="280" y="364" width="195" height="100" as="geometry" />
        </mxCell>
        <mxCell id="Bzr7LH3LYIl0aywDg5R7-4" value="&lt;font style=&quot;font-size: 22px;&quot;&gt;Wi-Fi 管理&lt;/font&gt;" style="shape=parallelogram;perimeter=parallelogramPerimeter;whiteSpace=wrap;html=1;fixedSize=1;" parent="1" vertex="1">
          <mxGeometry x="60" y="314" width="195" height="100" as="geometry" />
        </mxCell>
        <mxCell id="Bzr7LH3LYIl0aywDg5R7-5" value="&lt;font style=&quot;font-size: 22px;&quot;&gt;資料庫管理&lt;/font&gt;" style="shape=parallelogram;perimeter=parallelogramPerimeter;whiteSpace=wrap;html=1;fixedSize=1;" parent="1" vertex="1">
          <mxGeometry x="700" y="464" width="195" height="100" as="geometry" />
        </mxCell>
        <mxCell id="Bzr7LH3LYIl0aywDg5R7-6" value="&lt;font style=&quot;font-size: 22px;&quot;&gt;UI 介面&lt;/font&gt;" style="shape=parallelogram;perimeter=parallelogramPerimeter;whiteSpace=wrap;html=1;fixedSize=1;" parent="1" vertex="1">
          <mxGeometry x="920" y="514" width="195" height="100" as="geometry" />
        </mxCell>
        <mxCell id="Bzr7LH3LYIl0aywDg5R7-13" value="" style="endArrow=none;dashed=1;html=1;rounded=0;entryX=0.106;entryY=-0.012;entryDx=0;entryDy=0;entryPerimeter=0;exitX=0;exitY=0;exitDx=0;exitDy=0;" parent="1" source="Bzr7LH3LYIl0aywDg5R7-12" target="Bzr7LH3LYIl0aywDg5R7-1" edge="1">
          <mxGeometry width="50" height="50" relative="1" as="geometry">
            <mxPoint x="510" y="410" as="sourcePoint" />
            <mxPoint x="560" y="360" as="targetPoint" />
          </mxGeometry>
        </mxCell>
        <mxCell id="Bzr7LH3LYIl0aywDg5R7-14" value="" style="endArrow=none;dashed=1;html=1;rounded=0;entryX=0;entryY=1;entryDx=0;entryDy=0;exitX=0;exitY=1;exitDx=0;exitDy=0;" parent="1" source="Bzr7LH3LYIl0aywDg5R7-12" target="Bzr7LH3LYIl0aywDg5R7-1" edge="1">
          <mxGeometry width="50" height="50" relative="1" as="geometry">
            <mxPoint x="510" y="410" as="sourcePoint" />
            <mxPoint x="560" y="360" as="targetPoint" />
          </mxGeometry>
        </mxCell>
        <mxCell id="Bzr7LH3LYIl0aywDg5R7-15" value="" style="endArrow=none;dashed=1;html=1;rounded=0;entryX=1;entryY=0;entryDx=0;entryDy=0;exitX=1;exitY=0;exitDx=0;exitDy=0;" parent="1" source="Bzr7LH3LYIl0aywDg5R7-12" target="Bzr7LH3LYIl0aywDg5R7-1" edge="1">
          <mxGeometry width="50" height="50" relative="1" as="geometry">
            <mxPoint x="510" y="410" as="sourcePoint" />
            <mxPoint x="560" y="360" as="targetPoint" />
          </mxGeometry>
        </mxCell>
        <mxCell id="Bzr7LH3LYIl0aywDg5R7-16" value="" style="endArrow=none;dashed=1;html=1;rounded=0;exitX=1;exitY=1;exitDx=0;exitDy=0;entryX=0.908;entryY=1.025;entryDx=0;entryDy=0;entryPerimeter=0;" parent="1" source="Bzr7LH3LYIl0aywDg5R7-12" target="Bzr7LH3LYIl0aywDg5R7-1" edge="1">
          <mxGeometry width="50" height="50" relative="1" as="geometry">
            <mxPoint x="510" y="410" as="sourcePoint" />
            <mxPoint x="660" y="180" as="targetPoint" />
          </mxGeometry>
        </mxCell>
        <mxCell id="Bzr7LH3LYIl0aywDg5R7-18" value="&lt;font style=&quot;font-size: 14px;&quot;&gt;A1&lt;br&gt;&lt;/font&gt;" style="text;strokeColor=none;align=center;fillColor=none;html=1;verticalAlign=middle;whiteSpace=wrap;rounded=0;" parent="1" vertex="1">
          <mxGeometry x="180" y="384" width="60" height="30" as="geometry" />
        </mxCell>
        <mxCell id="Bzr7LH3LYIl0aywDg5R7-19" value="&lt;font style=&quot;font-size: 14px;&quot;&gt;A2&lt;/font&gt;" style="text;strokeColor=none;align=center;fillColor=none;html=1;verticalAlign=middle;whiteSpace=wrap;rounded=0;" parent="1" vertex="1">
          <mxGeometry x="400" y="434" width="60" height="30" as="geometry" />
        </mxCell>
        <mxCell id="Bzr7LH3LYIl0aywDg5R7-20" value="&lt;font style=&quot;font-size: 14px;&quot;&gt;A3&lt;/font&gt;" style="text;strokeColor=none;align=center;fillColor=none;html=1;verticalAlign=middle;whiteSpace=wrap;rounded=0;" parent="1" vertex="1">
          <mxGeometry x="610" y="484" width="60" height="30" as="geometry" />
        </mxCell>
        <mxCell id="Bzr7LH3LYIl0aywDg5R7-21" value="&lt;font style=&quot;font-size: 14px;&quot;&gt;A4&lt;/font&gt;" style="text;strokeColor=none;align=center;fillColor=none;html=1;verticalAlign=middle;whiteSpace=wrap;rounded=0;" parent="1" vertex="1">
          <mxGeometry x="820" y="534" width="60" height="30" as="geometry" />
        </mxCell>
        <mxCell id="Bzr7LH3LYIl0aywDg5R7-22" value="&lt;font style=&quot;font-size: 14px;&quot;&gt;A5&lt;/font&gt;" style="text;strokeColor=none;align=center;fillColor=none;html=1;verticalAlign=middle;whiteSpace=wrap;rounded=0;" parent="1" vertex="1">
          <mxGeometry x="1040" y="584" width="60" height="30" as="geometry" />
        </mxCell>
        <mxCell id="Bzr7LH3LYIl0aywDg5R7-23" value="" style="endArrow=classic;html=1;rounded=0;entryX=0;entryY=0.5;entryDx=0;entryDy=0;" parent="1" target="Bzr7LH3LYIl0aywDg5R7-4" edge="1">
          <mxGeometry width="50" height="50" relative="1" as="geometry">
            <mxPoint x="-20" y="364" as="sourcePoint" />
            <mxPoint x="560" y="360" as="targetPoint" />
          </mxGeometry>
        </mxCell>
        <mxCell id="Bzr7LH3LYIl0aywDg5R7-28" value="" style="edgeStyle=elbowEdgeStyle;elbow=horizontal;endArrow=classic;html=1;curved=0;rounded=0;endSize=8;startSize=8;exitX=1;exitY=0.5;exitDx=0;exitDy=0;entryX=0;entryY=0.5;entryDx=0;entryDy=0;" parent="1" source="Bzr7LH3LYIl0aywDg5R7-4" target="Bzr7LH3LYIl0aywDg5R7-3" edge="1">
          <mxGeometry width="50" height="50" relative="1" as="geometry">
            <mxPoint x="510" y="410" as="sourcePoint" />
            <mxPoint x="560" y="360" as="targetPoint" />
          </mxGeometry>
        </mxCell>
        <mxCell id="Bzr7LH3LYIl0aywDg5R7-29" value="" style="edgeStyle=elbowEdgeStyle;elbow=horizontal;endArrow=classic;html=1;curved=0;rounded=0;endSize=8;startSize=8;exitX=1;exitY=0.5;exitDx=0;exitDy=0;entryX=0;entryY=0.5;entryDx=0;entryDy=0;" parent="1" source="Bzr7LH3LYIl0aywDg5R7-3" target="Bzr7LH3LYIl0aywDg5R7-2" edge="1">
          <mxGeometry width="50" height="50" relative="1" as="geometry">
            <mxPoint x="510" y="410" as="sourcePoint" />
            <mxPoint x="560" y="360" as="targetPoint" />
          </mxGeometry>
        </mxCell>
        <mxCell id="Bzr7LH3LYIl0aywDg5R7-30" value="" style="edgeStyle=elbowEdgeStyle;elbow=horizontal;endArrow=classic;html=1;curved=0;rounded=0;endSize=8;startSize=8;exitX=1;exitY=0.5;exitDx=0;exitDy=0;entryX=0;entryY=0.5;entryDx=0;entryDy=0;" parent="1" source="Bzr7LH3LYIl0aywDg5R7-2" target="Bzr7LH3LYIl0aywDg5R7-5" edge="1">
          <mxGeometry width="50" height="50" relative="1" as="geometry">
            <mxPoint x="510" y="410" as="sourcePoint" />
            <mxPoint x="560" y="360" as="targetPoint" />
          </mxGeometry>
        </mxCell>
        <mxCell id="Bzr7LH3LYIl0aywDg5R7-31" value="" style="edgeStyle=elbowEdgeStyle;elbow=horizontal;endArrow=classic;html=1;curved=0;rounded=0;endSize=8;startSize=8;exitX=1;exitY=0.5;exitDx=0;exitDy=0;entryX=0;entryY=0.5;entryDx=0;entryDy=0;" parent="1" source="Bzr7LH3LYIl0aywDg5R7-5" target="Bzr7LH3LYIl0aywDg5R7-6" edge="1">
          <mxGeometry width="50" height="50" relative="1" as="geometry">
            <mxPoint x="510" y="410" as="sourcePoint" />
            <mxPoint x="560" y="360" as="targetPoint" />
          </mxGeometry>
        </mxCell>
        <mxCell id="Bzr7LH3LYIl0aywDg5R7-35" value="" style="endArrow=classic;html=1;rounded=0;exitX=1;exitY=0.5;exitDx=0;exitDy=0;" parent="1" source="Bzr7LH3LYIl0aywDg5R7-6" edge="1">
          <mxGeometry width="50" height="50" relative="1" as="geometry">
            <mxPoint x="510" y="410" as="sourcePoint" />
            <mxPoint x="1190" y="564" as="targetPoint" />
          </mxGeometry>
        </mxCell>
        <mxCell id="Bzr7LH3LYIl0aywDg5R7-36" value="" style="endArrow=classic;html=1;rounded=0;entryX=0;entryY=0.5;entryDx=0;entryDy=0;" parent="1" target="Bzr7LH3LYIl0aywDg5R7-1" edge="1">
          <mxGeometry width="50" height="50" relative="1" as="geometry">
            <mxPoint x="270" y="190" as="sourcePoint" />
            <mxPoint x="560" y="360" as="targetPoint" />
          </mxGeometry>
        </mxCell>
        <mxCell id="Bzr7LH3LYIl0aywDg5R7-37" value="" style="endArrow=classic;html=1;rounded=0;exitX=1;exitY=0.5;exitDx=0;exitDy=0;" parent="1" source="Bzr7LH3LYIl0aywDg5R7-1" edge="1">
          <mxGeometry width="50" height="50" relative="1" as="geometry">
            <mxPoint x="510" y="410" as="sourcePoint" />
            <mxPoint x="890" y="190" as="targetPoint" />
          </mxGeometry>
        </mxCell>
        <mxCell id="Bzr7LH3LYIl0aywDg5R7-38" value="&lt;font style=&quot;font-size: 18px;&quot;&gt;用戶及系統相關數據&lt;/font&gt;" style="text;strokeColor=none;align=center;fillColor=none;html=1;verticalAlign=middle;whiteSpace=wrap;rounded=0;" parent="1" vertex="1">
          <mxGeometry x="100" y="175" width="170" height="30" as="geometry" />
        </mxCell>
        <mxCell id="Bzr7LH3LYIl0aywDg5R7-39" value="&lt;span style=&quot;font-size: 18px;&quot;&gt;打卡結果&lt;/span&gt;" style="text;strokeColor=none;align=center;fillColor=none;html=1;verticalAlign=middle;whiteSpace=wrap;rounded=0;" parent="1" vertex="1">
          <mxGeometry x="895" y="175" width="155" height="30" as="geometry" />
        </mxCell>
        <mxCell id="MBl-QrmTGhOZfTzYXRKG-2" value="Fingerprint Attendance System" style="swimlane;whiteSpace=wrap;html=1;" parent="1" vertex="1">
          <mxGeometry x="-36" y="64" width="1240" height="600" as="geometry" />
        </mxCell>
        <mxCell id="Bzr7LH3LYIl0aywDg5R7-17" value="&lt;font style=&quot;font-size: 14px;&quot;&gt;A0&lt;/font&gt;" style="text;strokeColor=none;align=center;fillColor=none;html=1;verticalAlign=middle;whiteSpace=wrap;rounded=0;" parent="MBl-QrmTGhOZfTzYXRKG-2" vertex="1">
          <mxGeometry x="646" y="141" width="60" height="30" as="geometry" />
        </mxCell>
      </root>
    </mxGraphModel>
  </diagram>
</mxfile>
